<svg width="6" height="10" viewBox="0 0 6 10" fill="none" xmlns="http://www.w3.org/2000/svg">
<path fill-rule="evenodd" clip-rule="evenodd" d="M0.665282 0.720964C0.77103 0.615044 0.914435 0.555542 1.06396 0.555542C1.21349 0.555542 1.35689 0.615044 1.46264 0.720964L5.33477 4.60057C5.44049 4.70653 5.49988 4.85021 5.49988 5.00002C5.49988 5.14984 5.44049 5.29352 5.33477 5.39947L1.46264 9.27909C1.3568 9.38503 1.2133 9.4445 1.0637 9.44443C0.914092 9.44436 0.770643 9.38475 0.664906 9.27871C0.55917 9.17267 0.499807 9.02889 0.499878 8.87899C0.499948 8.7291 0.559446 8.58537 0.665282 8.47943L4.13892 4.99946L0.665282 1.51986C0.559567 1.41391 0.500179 1.27023 0.500179 1.12041C0.500179 0.970598 0.559567 0.826916 0.665282 0.720964Z" fill="#36353A"/>
</svg>