<svg width="6" height="10" viewBox="0 0 6 10" fill="none" xmlns="http://www.w3.org/2000/svg">
<path fill-rule="evenodd" clip-rule="evenodd" d="M0.665297 0.720964C0.771045 0.615044 0.91445 0.555542 1.06398 0.555542C1.2135 0.555542 1.35691 0.615044 1.46266 0.720964L5.33479 4.60057C5.44051 4.70653 5.49989 4.85021 5.49989 5.00002C5.49989 5.14984 5.44051 5.29352 5.33479 5.39947L1.46266 9.27909C1.35682 9.38503 1.21332 9.4445 1.06371 9.44443C0.914107 9.44436 0.770658 9.38475 0.664922 9.27871C0.559185 9.17267 0.499823 9.02889 0.499893 8.87899C0.499964 8.7291 0.559461 8.58537 0.665297 8.47943L4.13894 4.99946L0.665297 1.51986C0.559582 1.41391 0.500194 1.27023 0.500194 1.12041C0.500194 0.970598 0.559582 0.826916 0.665297 0.720964Z" fill="#36353A"/>
</svg>
