<svg width="10" height="6" viewBox="0 0 10 6" fill="none" xmlns="http://www.w3.org/2000/svg">
<path fill-rule="evenodd" clip-rule="evenodd" d="M9.27904 0.665404C9.38496 0.771152 9.44446 0.914557 9.44446 1.06408C9.44446 1.21361 9.38496 1.35702 9.27904 1.46276L5.39942 5.3349C5.29347 5.44061 5.14979 5.5 4.99997 5.5C4.85016 5.5 4.70648 5.44061 4.60053 5.3349L0.720915 1.46276C0.614974 1.35693 0.555498 1.21342 0.555569 1.06382C0.555639 0.914213 0.615251 0.770764 0.721292 0.665028C0.827332 0.559292 0.971114 0.499929 1.12101 0.5C1.2709 0.50007 1.41463 0.559568 1.52057 0.665404L5.00054 4.13905L8.48014 0.665404C8.58609 0.559689 8.72977 0.500301 8.87959 0.500301C9.0294 0.500301 9.17308 0.559689 9.27904 0.665404Z" fill="#36353A"/>
</svg>