<svg width="9" height="14" viewBox="0 0 9 14" fill="none" xmlns="http://www.w3.org/2000/svg">
<path fill-rule="evenodd" clip-rule="evenodd" d="M0.297728 0.26054C0.488073 0.0937162 0.746202 0 1.01535 0C1.2845 0 1.54263 0.0937162 1.73297 0.26054L8.70281 6.37093C8.8931 6.5378 9 6.7641 9 7.00006C9 7.23602 8.8931 7.46232 8.70281 7.62919L1.73297 13.7396C1.54247 13.9064 1.28416 14.0001 1.01487 14C0.745584 13.9999 0.487376 13.906 0.297051 13.739C0.106726 13.572 -0.000126787 13.3455 1.12902e-07 13.1094C0.000127013 12.8734 0.107223 12.647 0.297728 12.4801L6.55028 6.99917L0.297728 1.5188C0.10744 1.35193 0.000542034 1.12563 0.000542034 0.889672C0.000542034 0.653713 0.10744 0.427413 0.297728 0.26054Z" fill="#142043"/>
</svg>