<svg width="21" height="30" viewBox="0 0 21 30" fill="none" xmlns="http://www.w3.org/2000/svg">
<path fill-rule="evenodd" clip-rule="evenodd" d="M15.6361 24.1464C15.4035 24.3728 15.088 24.5 14.759 24.5C14.4301 24.5 14.1146 24.3728 13.8819 24.1464L5.36323 15.8537C5.13065 15.6273 5 15.3201 5 14.9999C5 14.6797 5.13065 14.3726 5.36323 14.1461L13.8819 5.85343C14.1148 5.62698 14.4305 5.49985 14.7596 5.5C15.0887 5.50015 15.4043 5.62757 15.6369 5.85423C15.8696 6.08089 16.0002 6.38823 16 6.70863C15.9998 7.02902 15.8689 7.33624 15.6361 7.56268L7.9941 15.0011L15.6361 22.4388C15.8687 22.6652 15.9993 22.9724 15.9993 23.2926C15.9993 23.6128 15.8687 23.9199 15.6361 24.1464Z" fill="#36353A"/>
</svg>