<svg width="20" height="20" viewBox="0 0 20 20" fill="none" xmlns="http://www.w3.org/2000/svg">
<rect width="20" height="20" rx="3" fill="#3578F6"/>
<path d="M7.93669 15C7.86647 14.9996 7.79707 14.9855 7.73273 14.9583C7.66839 14.9312 7.61046 14.8916 7.56251 14.8421L4.142 11.3352C4.04763 11.2378 3.9967 11.1085 4.00017 10.9752C4.00364 10.8419 4.06123 10.7153 4.16055 10.6226C4.20935 10.5769 4.2671 10.5411 4.3304 10.5173C4.3937 10.4934 4.46129 10.4819 4.52923 10.4836C4.59718 10.4852 4.6641 10.4998 4.7261 10.5267C4.78811 10.5535 4.84395 10.592 4.89036 10.6399L7.90614 13.7352L15.0848 5.18459C15.1273 5.13349 15.18 5.09105 15.2396 5.05979C15.2993 5.02853 15.3649 5.00905 15.4325 5.00248C15.5 4.99592 15.5683 5.00241 15.6333 5.02156C15.6982 5.04072 15.7586 5.07215 15.8108 5.11405C15.917 5.19959 15.984 5.32199 15.9975 5.45482C16.011 5.58766 15.9698 5.72028 15.8828 5.82406L8.3365 14.8158C8.29012 14.871 8.23206 14.9159 8.16622 14.9477C8.10037 14.9795 8.02826 14.9973 7.9547 15H7.93669Z" fill="white" stroke="white"/>
</svg>