<svg width="12" height="12" viewBox="0 0 16 16" fill="none" xmlns="http://www.w3.org/2000/svg">
    <rect width="12" height="12" rx="2.25" fill="#3578F6" transform="scale(0.75)"/>
    <path d="M5.424 8.241L3.765 6.582C3.694 6.511 3.652 6.415 3.655 6.32C3.658 6.226 3.702 6.136 3.778 6.065C3.817 6.031 3.861 6.008 3.91 5.989C3.959 5.97 4.01 5.96 4.06 5.96C4.11 5.96 4.16 5.97 4.209 5.989C4.258 6.008 4.302 6.031 4.342 6.065L5.93 7.653L8.76 4.824C8.796 4.787 8.838 4.755 8.885 4.728C8.932 4.701 8.983 4.679 9.036 4.664C9.089 4.649 9.144 4.641 9.199 4.641C9.254 4.641 9.308 4.649 9.36 4.664C9.413 4.679 9.464 4.701 9.511 4.728C9.558 4.755 9.6 4.787 9.636 4.824C9.708 4.895 9.758 4.988 9.775 5.087C9.791 5.186 9.773 5.287 9.724 5.37L6.164 9.641C6.131 9.689 6.088 9.729 6.038 9.758C5.988 9.786 5.932 9.802 5.876 9.806C5.82 9.811 5.764 9.804 5.711 9.786C5.658 9.767 5.609 9.737 5.567 9.698L5.424 9.558V8.241Z" fill="white" stroke="white" transform="scale(0.75) translate(2, 2)"/>
</svg>
