<svg width="180" height="36" viewBox="0 0 180 36" fill="none" xmlns="http://www.w3.org/2000/svg">
<path d="M79.351 14.9072C79.2811 14.6103 79.1763 14.1736 79.0366 13.5972C78.9143 13.0034 78.7746 12.3746 78.6174 11.7109C78.4602 11.0297 78.3118 10.4097 78.172 9.85079C78.0323 9.27442 77.9362 8.85523 77.8838 8.59324H77.779C77.7267 8.85523 77.6306 9.27442 77.4909 9.85079C77.3686 10.4097 77.2289 11.0297 77.0717 11.7109C76.9145 12.3746 76.766 13.0034 76.6263 13.5972C76.4866 14.1911 76.3818 14.6452 76.3119 14.9596L75.1592 19.9112H70.9673L66.9065 5.60657H70.7839L72.4345 11.9467C72.5567 12.3834 72.6615 12.9073 72.7489 13.5186C72.8536 14.13 72.9497 14.7238 73.037 15.3002C73.1244 15.8591 73.1855 16.3045 73.2204 16.6363H73.3252C73.3427 16.3918 73.3776 16.0687 73.43 15.667C73.4824 15.2478 73.5436 14.8199 73.6134 14.3832C73.7007 13.9466 73.7706 13.5536 73.823 13.2043C73.8929 12.8375 73.9453 12.5929 73.9802 12.4707L75.7355 5.60657H80.0322L81.7089 12.4707C81.7788 12.7152 81.8573 13.1082 81.9447 13.6496C82.0495 14.1911 82.1368 14.7413 82.2067 15.3002C82.294 15.8591 82.3377 16.3045 82.3377 16.6363H82.4425C82.4774 16.3394 82.5385 15.9115 82.6258 15.3526C82.7132 14.7762 82.8092 14.1736 82.914 13.5448C83.0363 12.9161 83.1586 12.3834 83.2808 11.9467L84.9838 5.60657H88.8088L84.6956 19.9112H80.4513L79.351 14.9072Z" fill="#3578F6"/>
<path d="M58.7451 5.31848C60.6663 5.31848 62.1335 5.73766 63.1465 6.57603C64.177 7.39693 64.6922 8.66321 64.6922 10.3749V19.9113H61.9675L61.2078 17.9726H61.103C60.7013 18.4791 60.2821 18.8983 59.8454 19.2301C59.4262 19.562 58.9372 19.7978 58.3783 19.9375C57.8368 20.0947 57.1644 20.1733 56.361 20.1733C55.5226 20.1733 54.7628 20.0161 54.0817 19.7017C53.418 19.3698 52.894 18.8721 52.5097 18.2084C52.1255 17.5272 51.9333 16.6714 51.9333 15.6409C51.9333 14.1213 52.4661 13.0035 53.5315 12.2874C54.5969 11.5538 56.195 11.1521 58.3259 11.0822L60.8148 11.0036V10.3749C60.8148 9.62384 60.6139 9.07366 60.2122 8.72434C59.828 8.37502 59.2865 8.20036 58.5879 8.20036C57.8892 8.20036 57.2081 8.30516 56.5444 8.51475C55.8807 8.70688 55.2169 8.9514 54.5532 9.24832L53.2695 6.60223C54.038 6.20051 54.8851 5.88613 55.8108 5.65907C56.754 5.43201 57.732 5.31848 58.7451 5.31848ZM59.2952 13.3354C58.0377 13.3703 57.1644 13.5973 56.6754 14.0165C56.1863 14.4357 55.9418 14.9859 55.9418 15.6671C55.9418 16.2609 56.1164 16.6888 56.4658 16.9508C56.8151 17.1953 57.2692 17.3176 57.8281 17.3176C58.6665 17.3176 59.3738 17.0731 59.9502 16.584C60.5266 16.0775 60.8148 15.3701 60.8148 14.4619V13.283L59.2952 13.3354Z" fill="#3578F6"/>
<path d="M38.3772 19.9112V1.2052H42.3332V16.6364H49.9309V19.9112H38.3772Z" fill="#3578F6"/>
<path d="M35.2261 19.9112H23.9343V17.6057L30.5627 8.59324H24.3273V5.60657H34.9903V8.14786L28.5453 16.9245H35.2261V19.9112Z" fill="#3578F6"/>
<path d="M21.1917 5.60657V19.9112H17.2881V5.60657H21.1917ZM19.253 0C19.8293 0 20.3271 0.139728 20.7463 0.419184C21.1655 0.681173 21.3751 1.17895 21.3751 1.91252C21.3751 2.62863 21.1655 3.12641 20.7463 3.40586C20.3271 3.68532 19.8293 3.82504 19.253 3.82504C18.6591 3.82504 18.1526 3.68532 17.7334 3.40586C17.3317 3.12641 17.1309 2.62863 17.1309 1.91252C17.1309 1.17895 17.3317 0.681173 17.7334 0.419184C18.1526 0.139728 18.6591 0 19.253 0Z" fill="#3578F6"/>
<path d="M5.81616 1.2052C7.47543 1.2052 8.86397 1.36239 9.98179 1.67678C11.1171 1.9737 11.9642 2.47148 12.5231 3.17012C13.0995 3.85129 13.3877 4.77699 13.3877 5.94721C13.3877 6.64585 13.2741 7.28335 13.0471 7.85973C12.82 8.43611 12.4882 8.90769 12.0515 9.27447C11.6323 9.64126 11.1171 9.87705 10.5058 9.98184V10.1128C11.1345 10.2351 11.7022 10.4534 12.2087 10.7678C12.7152 11.0822 13.1169 11.5363 13.4139 12.1302C13.7108 12.724 13.8592 13.51 13.8592 14.4881C13.8592 15.6233 13.5798 16.6014 13.0209 17.4223C12.4794 18.2258 11.6935 18.8458 10.663 19.2825C9.63247 19.7016 8.40986 19.9112 6.99511 19.9112H0V1.2052H5.81616ZM6.26154 8.6195C7.4143 8.6195 8.209 8.43611 8.64565 8.06932C9.09976 7.70254 9.32682 7.16982 9.32682 6.47119C9.32682 5.75508 9.06483 5.23984 8.54085 4.92545C8.01687 4.61106 7.18724 4.45387 6.05195 4.45387H3.95604V8.6195H6.26154ZM3.95604 11.7634V16.6364H6.54973C7.73742 16.6364 8.56705 16.4093 9.03863 15.9552C9.51021 15.4836 9.746 14.8636 9.746 14.0951C9.746 13.6235 9.6412 13.213 9.43161 12.8637C9.23949 12.5144 8.8989 12.2437 8.40986 12.0516C7.92081 11.8594 7.2571 11.7634 6.41874 11.7634H3.95604Z" fill="#3578F6"/>
<path d="M98.3379 30.73L97.9017 31.5317C96.2983 31.1662 94.6478 30.0344 93.9758 28.4782C93.3038 30.0226 91.6532 31.1544 90.0617 31.5317L89.6255 30.73C91.4764 30.3645 93.4688 28.7729 93.4688 26.9691V26.1556H94.4827V26.9691C94.4827 28.7729 96.487 30.3763 98.3379 30.73ZM89.2246 33.7717H98.8095V34.5734H89.2246V33.7717Z" fill="#8A8A8D"/>
<path d="M86.066 25.4128H87.0327V35.9998H86.066V25.4128ZM78.9805 26.3088H79.9354V29.103H83.0007V26.3088H83.9556V33.4415H78.9805V26.3088ZM79.9354 29.8693V32.6516H83.0007V29.8693H79.9354Z" fill="#8A8A8D"/>
<path d="M71.2358 26.3206V28.2187C71.2358 30.1404 72.4384 32.0621 73.971 32.7931L73.4051 33.5594C72.2026 32.9581 71.2358 31.6967 70.7525 30.2112C70.2927 31.7792 69.3142 33.1114 68.1234 33.748L67.5339 32.9817C69.0666 32.2154 70.2691 30.1758 70.2691 28.2187V26.3206H71.2358ZM75.2796 25.4128H76.2464V35.9998H75.2796V29.7868H72.8274V28.9969H75.2796V25.4128Z" fill="#8A8A8D"/>
<path d="M64.0921 27.2522V26.3916H57.8908V25.7078H65.0471V27.9124H58.8694V28.8084H65.2357V29.5158H57.9144V27.2522H64.0921ZM62.7245 31.9326V30.9659H60.237V31.9326H62.7245ZM66.2732 30.9659H63.6913V31.9326H65.0824V34.1844H58.8104V35.163H65.4125V35.8703H57.8555V33.5124H64.1275V32.6282H57.8201V31.9326H59.2702V30.9659H56.6765V30.2467H66.2732V30.9659Z" fill="#8A8A8D"/>
<path d="M53.5887 35.0567V33.7363H48.7314V35.0567H53.5887ZM53.5887 32.9818V31.7085H54.5437V35.8348H47.7765V31.7085H48.7314V32.9818H53.5887ZM50.1816 30.0108V28.3367H47.3285V30.0108H50.1816ZM53.5769 25.4247H54.5555V31.2015H53.5769V28.8083H51.1365V30.8007H46.3735V25.967H47.3285V27.5822H50.1816V25.967H51.1365V28.0184H53.5769V25.4247Z" fill="#8A8A8D"/>
<path d="M41.0484 30.73L40.6121 31.5317C39.0088 31.1662 37.3582 30.0344 36.6862 28.4782C36.0142 30.0226 34.3637 31.1544 32.7721 31.5317L32.3359 30.73C34.1869 30.3645 36.1793 28.7729 36.1793 26.9691V26.1556H37.1932V26.9691C37.1932 28.7729 39.1974 30.3763 41.0484 30.73ZM31.9351 33.7717H41.5199V34.5734H31.9351V33.7717Z" fill="#8A8A8D"/>
<path d="M22.7165 26.4385V32.4276C24.3081 32.4276 25.9468 32.2861 27.7035 31.9324L27.8096 32.7577C25.9704 33.135 24.3081 33.2529 22.6222 33.2529H21.7498V26.4385H22.7165ZM28.7881 25.4128H29.7548V35.9762H28.7881V25.4128Z" fill="#8A8A8D"/>
<path d="M14.0168 27.2992V28.6432C14.0168 30.4352 15.2901 32.2626 16.8463 32.9228L16.304 33.7009C15.0778 33.135 14.0404 31.9207 13.5334 30.4706C13.05 32.015 12.0126 33.3472 10.81 33.9603L10.2441 33.1822C11.765 32.463 13.05 30.4706 13.05 28.6432V27.2992H10.5978V26.4975H16.5044V27.2992H14.0168ZM17.9309 25.4247H18.8976V35.9881H17.9309V25.4247Z" fill="#8A8A8D"/>
<path d="M7.0855 25.4128H8.05224V35.9998H7.0855V25.4128ZM0 26.3088H0.954951V29.103H4.02023V26.3088H4.97518V33.4415H0V26.3088ZM0.954951 29.8693V32.6516H4.02023V29.8693H0.954951Z" fill="#8A8A8D"/>
</svg>