<svg width="38" height="38" viewBox="0 0 38 38" fill="none" xmlns="http://www.w3.org/2000/svg">
<path fill-rule="evenodd" clip-rule="evenodd" d="M37.6139 22.8293C35.8424 31.4872 28.1818 38 19 38C18.3441 38 17.696 37.9668 17.0574 37.902C7.4765 36.929 0 28.8376 0 19C0 8.50659 8.50659 0 19 0C29.4933 0 38 8.50659 38 19C38 20.3118 37.867 21.5924 37.6139 22.8293ZM26.6 13.3C26.6 17.4975 23.1973 20.9 19 20.9C14.8026 20.9 11.4 17.4975 11.4 13.3C11.4 9.10264 14.8026 5.7 19 5.7C23.1973 5.7 26.6 9.10264 26.6 13.3ZM31.4993 27.6515C28.7554 31.6086 24.1803 34.2 19 34.2C13.8197 34.2 9.2446 31.6086 6.50049 27.6513C7.21576 26.5799 8.13856 25.6945 9.24703 24.989C11.9501 23.2687 15.489 22.8 18.9998 22.8C22.5108 22.8 26.0498 23.2687 28.7527 24.989C29.8613 25.6945 30.7842 26.5799 31.4993 27.6515Z" fill="#B7BEC8"/>
</svg>