<svg width="34" height="35" viewBox="0 0 34 35" fill="none" xmlns="http://www.w3.org/2000/svg">
<path fill-rule="evenodd" clip-rule="evenodd" d="M17.9039 12.6322C17.7009 12.2712 17.2436 12.1431 16.8825 12.3462L8.88255 16.8462C8.64639 16.979 8.50024 17.2289 8.50024 17.4999C8.50024 17.7708 8.64639 18.0207 8.88255 18.1536L16.8825 22.6536C17.2436 22.8566 17.7009 22.7286 17.9039 22.3676C18.107 22.0066 17.979 21.5493 17.6179 21.3462L10.78 17.4999L17.6179 13.6536C17.979 13.4505 18.107 12.9932 17.9039 12.6322Z" fill="#36353A"/>
<path fill-rule="evenodd" clip-rule="evenodd" d="M25.4034 12.6324C25.2004 12.2714 24.7431 12.1434 24.3821 12.3465L16.3821 16.8465C16.1459 16.9793 15.9998 17.2292 15.9998 17.5001C15.9998 17.7711 16.1459 18.021 16.3821 18.1538L24.3821 22.6538C24.7431 22.8569 25.2004 22.7288 25.4034 22.3678C25.6065 22.0068 25.4785 21.5495 25.1175 21.3465L18.2796 17.5001L25.1175 13.6538C25.4785 13.4507 25.6065 12.9935 25.4034 12.6324Z" fill="#36353A"/>
</svg>