<svg width="34" height="35" viewBox="0 0 34 35" fill="none" xmlns="http://www.w3.org/2000/svg">
<path fill-rule="evenodd" clip-rule="evenodd" d="M16.0961 22.3678C16.2991 22.7288 16.7564 22.8569 17.1175 22.6538L25.1175 18.1538C25.3536 18.021 25.4998 17.7711 25.4998 17.5001C25.4998 17.2292 25.3536 16.9793 25.1175 16.8464L17.1175 12.3464C16.7564 12.1434 16.2991 12.2714 16.0961 12.6324C15.893 12.9934 16.021 13.4507 16.3821 13.6538L23.22 17.5001L16.3821 21.3464C16.021 21.5495 15.893 22.0068 16.0961 22.3678Z" fill="#D3D8E0"/>
<path fill-rule="evenodd" clip-rule="evenodd" d="M8.59656 22.3676C8.79964 22.7286 9.25692 22.8566 9.61794 22.6535L17.6179 18.1535C17.8541 18.0207 18.0002 17.7708 18.0002 17.4999C18.0002 17.2289 17.8541 16.979 17.6179 16.8462L9.61794 12.3462C9.25692 12.1431 8.79964 12.2712 8.59656 12.6322C8.39349 12.9932 8.52153 13.4505 8.88255 13.6535L15.7204 17.4999L8.88255 21.3462C8.52153 21.5493 8.39349 22.0065 8.59656 22.3676Z" fill="#D3D8E0"/>
</svg>
