<svg width="42" height="41" viewBox="0 0 42 41" fill="none" xmlns="http://www.w3.org/2000/svg">
<path fill-rule="evenodd" clip-rule="evenodd" d="M13 19C13 15.6863 15.6863 13 19 13C22.3137 13 25 15.6863 25 19C25 22.3137 22.3137 25 19 25C15.6863 25 13 22.3137 13 19ZM19 10C14.0294 10 10 14.0294 10 19C10 23.9706 14.0294 28 19 28C20.9782 28 22.8074 27.3617 24.2928 26.2799L29.5397 30.6523C30.1761 31.1827 31.122 31.0967 31.6523 30.4603C32.1827 29.8239 32.0967 28.878 31.4603 28.3477L26.397 24.1283C27.4076 22.6732 28 20.9058 28 19C28 14.0294 23.9706 10 19 10Z" fill="#36353A"/>
</svg>