<svg width="22" height="23" viewBox="0 0 22 23" fill="none" xmlns="http://www.w3.org/2000/svg">
<rect width="22" height="23" rx="3" fill="#D3D8E0"/>
<path d="M8.93669 16.6428C8.86647 16.6425 8.79707 16.6283 8.73273 16.6011C8.66839 16.574 8.61046 16.5344 8.56251 16.4849L5.142 12.978C5.04763 12.8806 4.9967 12.7513 5.00017 12.618C5.00364 12.4847 5.06123 12.3581 5.16055 12.2654C5.20935 12.2197 5.2671 12.1839 5.3304 12.1601C5.3937 12.1362 5.46129 12.1248 5.52923 12.1264C5.59718 12.128 5.6641 12.1426 5.7261 12.1695C5.78811 12.1963 5.84395 12.2349 5.89036 12.2828L8.90614 15.3781L16.0848 6.82742C16.1273 6.77632 16.18 6.73388 16.2396 6.70261C16.2993 6.67135 16.3649 6.65187 16.4325 6.6453C16.5 6.63874 16.5683 6.64523 16.6333 6.66439C16.6982 6.68354 16.7586 6.71498 16.8108 6.75687C16.917 6.84241 16.984 6.96481 16.9975 7.09765C17.011 7.23048 16.9698 7.3631 16.8828 7.46688L9.3365 16.4586C9.29012 16.5138 9.23206 16.5588 9.16622 16.5905C9.10037 16.6223 9.02826 16.6401 8.9547 16.6428H8.93669Z" fill="white" stroke="white"/>
</svg>