<svg width="24" height="25" viewBox="0 0 24 25" fill="none" xmlns="http://www.w3.org/2000/svg">
<rect y="0.5" width="24" height="24" rx="12" fill="#D3D8E0"/>
<path d="M9.93669 17.5C9.86647 17.4996 9.79707 17.4855 9.73273 17.4583C9.66839 17.4312 9.61046 17.3916 9.56251 17.3421L6.142 13.8352C6.04763 13.7378 5.9967 13.6085 6.00017 13.4752C6.00364 13.3419 6.06123 13.2153 6.16055 13.1226C6.20935 13.0769 6.2671 13.0411 6.3304 13.0173C6.3937 12.9934 6.46129 12.9819 6.52923 12.9836C6.59718 12.9852 6.6641 12.9998 6.7261 13.0267C6.78811 13.0535 6.84395 13.092 6.89036 13.1399L9.90614 16.2352L17.0848 7.68459C17.1273 7.63349 17.18 7.59105 17.2396 7.55979C17.2993 7.52853 17.3649 7.50905 17.4325 7.50248C17.5 7.49592 17.5683 7.50241 17.6333 7.52156C17.6982 7.54072 17.7586 7.57215 17.8108 7.61405C17.917 7.69959 17.984 7.82199 17.9975 7.95482C18.011 8.08766 17.9698 8.22028 17.8828 8.32406L10.3365 17.3158C10.2901 17.371 10.2321 17.4159 10.1662 17.4477C10.1004 17.4795 10.0283 17.4973 9.9547 17.5H9.93669Z" fill="white" stroke="white"/>
</svg>